<svg width="185" height="56" viewBox="0 0 185 56" fill="none" xmlns="http://www.w3.org/2000/svg">
<mask id="mask0_817_1410" style="mask-type:alpha" maskUnits="userSpaceOnUse" x="0" y="0" width="57" height="46">
<path fill-rule="evenodd" clip-rule="evenodd" d="M0.832031 0.0581055H56.9147V45.5352H0.832031V0.0581055Z" fill="white"/>
</mask>
<g mask="url(#mask0_817_1410)">
<path fill-rule="evenodd" clip-rule="evenodd" d="M7.39894 43.8462C5.73239 40.255 4.80151 36.2485 4.80151 32.0231C4.80151 16.576 17.2419 4.05377 32.588 4.05377C41.133 4.05377 48.7767 7.93648 53.8739 14.0445L56.9147 11.4762C51.0895 4.49553 42.3537 0.0581055 32.588 0.0581055C15.0497 0.0581055 0.832031 14.3693 0.832031 32.0231C0.832031 36.8521 1.89585 41.431 3.80051 45.5352L7.39894 43.8462Z" fill="white"/>
</g>
<path fill-rule="evenodd" clip-rule="evenodd" d="M32.588 51.0023C22.1747 51.0023 13.733 42.5051 13.733 32.0232C13.733 21.5413 22.1747 13.0439 32.588 13.0439C38.3864 13.0439 43.5725 15.6793 47.0313 19.8241L50.0729 17.2551C45.886 12.2378 39.6071 9.04834 32.588 9.04834C19.9823 9.04834 9.76343 19.3345 9.76343 32.0232C9.76343 44.7118 19.9823 54.9979 32.588 54.9979V51.0023Z" fill="white"/>
<path fill-rule="evenodd" clip-rule="evenodd" d="M39.4295 37.8016C37.7912 39.7649 35.3346 41.0132 32.588 41.0132C27.6553 41.0132 23.6566 36.9882 23.6566 32.023C23.6566 27.058 27.6553 23.0329 32.588 23.0329C35.3346 23.0329 37.7912 24.2813 39.4295 26.2446L42.8503 23.3553C40.3927 20.4104 36.7079 18.5378 32.588 18.5378C25.189 18.5378 19.1909 24.5754 19.1909 32.023C19.1909 39.4707 25.189 45.5083 32.588 45.5083C36.3636 45.5083 39.7732 43.9349 42.2083 41.4053L39.4295 37.8016Z" fill="white"/>
<path fill-rule="evenodd" clip-rule="evenodd" d="M63.5784 27.6472H67.6596V30.422H67.7313C68.1128 29.5571 68.775 28.7946 69.7181 28.1336C70.6607 27.4732 71.7767 27.1426 73.0656 27.1426C74.1871 27.1426 75.1475 27.3408 75.9474 27.7373C76.747 28.1336 77.4031 28.6562 77.9165 29.3048C78.4295 29.9535 78.8055 30.6985 79.0442 31.5391C79.2825 32.3803 79.4023 33.2452 79.4023 34.1338V44.9448H75.1062V35.359C75.1062 34.8545 75.0704 34.3262 74.9988 33.7733C74.9271 33.2211 74.7718 32.7227 74.5335 32.278C74.2945 31.8336 73.9661 31.467 73.5487 31.1789C73.131 30.8905 72.576 30.7463 71.8841 30.7463C71.1916 30.7463 70.5953 30.8849 70.0942 31.1609C69.5928 31.4372 69.1811 31.7913 68.859 32.2239C68.5367 32.6562 68.2918 33.1553 68.1249 33.7193C67.9578 34.2842 67.8745 34.8545 67.8745 35.4312V44.9448H63.5784V27.6472Z" fill="white"/>
<path fill-rule="evenodd" clip-rule="evenodd" d="M81.2275 31.1067V27.6471H84.2348V22.6379H88.4593V27.6471H92.7553V31.1067H88.4593V39.1427C88.4593 39.9119 88.5963 40.5482 88.871 41.0528C89.1451 41.5572 89.7598 41.8095 90.7147 41.8095C91.0012 41.8095 91.3111 41.7797 91.6455 41.7194C91.9796 41.6597 92.2777 41.5696 92.5408 41.4491L92.6838 44.8365C92.3018 44.9807 91.848 45.0944 91.3234 45.179C90.7981 45.2628 90.297 45.3051 89.8198 45.3051C88.6741 45.3051 87.7433 45.1429 87.0274 44.8185C86.3112 44.4941 85.744 44.05 85.3267 43.4851C84.9089 42.9211 84.6225 42.2723 84.4675 41.5392C84.3119 40.8067 84.2348 40.02 84.2348 39.1788V31.1067H81.2275Z" fill="white"/>
<path fill-rule="evenodd" clip-rule="evenodd" d="M95.3337 27.6472H99.4508V30.53H99.5224C99.9994 29.521 100.668 28.7047 101.527 28.0795C102.386 27.4552 103.389 27.1426 104.534 27.1426C104.701 27.1426 104.88 27.1488 105.072 27.1606C105.262 27.1731 105.429 27.2029 105.573 27.2507V31.2149C105.286 31.1428 105.041 31.0949 104.839 31.0707C104.636 31.0469 104.439 31.0347 104.248 31.0347C103.269 31.0347 102.481 31.2149 101.885 31.5751C101.288 31.9355 100.823 32.3678 100.489 32.8725C100.154 33.3771 99.928 33.8939 99.8089 34.4222C99.6891 34.9508 99.6298 35.3713 99.6298 35.6833V44.9448H95.3337V27.6472Z" fill="white"/>
<path fill-rule="evenodd" clip-rule="evenodd" d="M107.541 44.9445H111.837V27.647H107.541V44.9445ZM106.932 21.773C106.932 21.0766 107.189 20.47 107.702 19.9532C108.215 19.4368 108.866 19.1785 109.653 19.1785C110.441 19.1785 111.103 19.425 111.64 19.9172C112.177 20.4098 112.446 21.0287 112.446 21.773C112.446 22.5179 112.177 23.1368 111.64 23.6288C111.103 24.1216 110.441 24.3677 109.653 24.3677C108.866 24.3677 108.215 24.1098 107.702 23.5928C107.189 23.0765 106.932 22.47 106.932 21.773Z" fill="white"/>
<path fill-rule="evenodd" clip-rule="evenodd" d="M117.387 31.1066H114.129V27.647H117.387V26.3534C117.387 25.3208 117.5 24.3298 117.727 23.3804C117.954 22.4317 118.336 21.5965 118.873 20.8758C119.41 20.1552 120.12 19.5847 121.003 19.1642C121.886 18.7441 122.995 18.5334 124.333 18.5334C124.81 18.5334 125.21 18.5515 125.532 18.5875C125.854 18.6235 126.182 18.6901 126.516 18.7857L126.23 22.4615C125.991 22.3895 125.734 22.3298 125.46 22.2813C125.186 22.2335 124.893 22.2092 124.583 22.2092C123.962 22.2092 123.461 22.3298 123.079 22.5697C122.697 22.81 122.405 23.1226 122.202 23.5066C121.999 23.891 121.862 24.3118 121.791 24.7679C121.719 25.2245 121.683 25.6688 121.683 26.1011V27.647H125.657V31.1066H121.683V44.9446H117.387V31.1066Z" fill="white"/>
<path fill-rule="evenodd" clip-rule="evenodd" d="M143.63 44.9445H139.549V42.1698H139.477C139.095 43.0347 138.433 43.7975 137.49 44.4579C136.547 45.1185 135.432 45.4492 134.143 45.4492C133.02 45.4492 132.06 45.2509 131.261 44.8544C130.461 44.4579 129.805 43.9355 129.292 43.2869C128.778 42.6381 128.402 41.8939 128.164 41.0527C127.925 40.2118 127.806 39.347 127.806 38.458V27.647H132.102V37.2327C132.102 37.7373 132.138 38.2659 132.209 38.8184C132.281 39.3713 132.436 39.8697 132.675 40.3138C132.913 40.7588 133.241 41.1245 133.659 41.4129C134.077 41.7012 134.632 41.8454 135.324 41.8454C135.992 41.8454 136.583 41.7075 137.096 41.4309C137.609 41.155 138.027 40.8004 138.349 40.3678C138.671 39.9355 138.916 39.4371 139.083 38.8724C139.25 38.3082 139.334 37.7373 139.334 37.1606V27.647H143.63V44.9445Z" fill="white"/>
<path fill-rule="evenodd" clip-rule="evenodd" d="M49.2424 31.5571C50.1375 30.7768 51.2294 30.3859 52.5182 30.3859C53.2103 30.3859 53.8126 30.5002 54.3263 30.7283C54.8391 30.957 55.2627 31.2632 55.597 31.6472C55.9311 32.0318 56.1755 32.4759 56.3312 32.9806C56.4861 33.485 56.5639 34.0138 56.5639 34.5661H47.7568C47.8519 33.341 48.3475 32.338 49.2424 31.5571ZM57.2082 39.6834C56.7305 40.3805 56.1218 40.9267 55.3824 41.3229C54.6422 41.7195 53.7355 41.9177 52.6615 41.9177C52.0406 41.9177 51.4442 41.8096 50.8715 41.5933C50.2985 41.3771 49.7851 41.0831 49.3319 40.7104C48.8784 40.3382 48.5141 39.8939 48.24 39.3771C47.9655 38.8606 47.8044 38.2904 47.7568 37.6654H60.8242C60.8476 37.4734 60.86 37.2814 60.86 37.0887V36.5122C60.86 34.9508 60.6507 33.5875 60.2334 32.4219C59.8156 31.257 59.2365 30.284 58.4971 29.503C57.757 28.7227 56.8798 28.1336 55.8656 27.7373C54.8509 27.3408 53.7472 27.1426 52.5541 27.1426C51.2652 27.1426 50.0658 27.3651 48.9562 27.8094C47.8463 28.2542 46.8853 28.8787 46.0741 29.6832C45.2624 30.4884 44.6241 31.4614 44.1588 32.6021C43.6932 33.7435 43.4607 35.0111 43.4607 36.4041C43.4607 37.8218 43.6932 39.0887 44.1588 40.2058C44.6241 41.3229 45.2686 42.2661 46.0919 43.0348C46.9153 43.804 47.8877 44.3985 49.0096 44.8186C50.1315 45.2387 51.3604 45.4493 52.6972 45.4493C55.5823 45.4493 57.8543 44.524 59.5149 42.6749L57.2082 39.6834Z" fill="white"/>
<path fill-rule="evenodd" clip-rule="evenodd" d="M173.065 31.5571C173.96 30.7768 175.052 30.3859 176.341 30.3859C177.033 30.3859 177.635 30.5002 178.149 30.7283C178.662 30.957 179.085 31.2632 179.42 31.6472C179.754 32.0318 179.998 32.4759 180.154 32.9806C180.309 33.485 180.386 34.0138 180.386 34.5661H171.579C171.674 33.341 172.17 32.338 173.065 31.5571ZM181.031 39.6834C180.553 40.3805 179.944 40.9267 179.205 41.3229C178.465 41.7195 177.558 41.9177 176.484 41.9177C175.863 41.9177 175.267 41.8096 174.694 41.5933C174.121 41.3771 173.608 41.0831 173.154 40.7104C172.701 40.3382 172.337 39.8939 172.062 39.3771C171.788 38.8606 171.627 38.2904 171.579 37.6654H184.647C184.67 37.4734 184.683 37.2814 184.683 37.0887V36.5122C184.683 34.9508 184.473 33.5875 184.056 32.4219C183.638 31.257 183.059 30.284 182.32 29.503C181.58 28.7227 180.702 28.1336 179.688 27.7373C178.673 27.3408 177.57 27.1426 176.377 27.1426C175.088 27.1426 173.888 27.3651 172.779 27.8094C171.669 28.2542 170.708 28.8787 169.897 29.6832C169.085 30.4884 168.447 31.4614 167.981 32.6021C167.516 33.7435 167.283 35.0111 167.283 36.4041C167.283 37.8218 167.516 39.0887 167.981 40.2058C168.447 41.3229 169.091 42.2661 169.914 43.0348C170.738 43.804 171.71 44.3985 172.832 44.8186C173.954 45.2387 175.183 45.4493 176.52 45.4493C179.405 45.4493 181.677 44.524 183.337 42.6749L181.031 39.6834Z" fill="white"/>
<path fill-rule="evenodd" clip-rule="evenodd" d="M160.203 38.2352C159.964 38.8939 159.624 39.4745 159.183 39.9774C158.741 40.48 158.204 40.881 157.571 41.1805C156.939 41.4802 156.229 41.6294 155.441 41.6294C154.677 41.6294 153.991 41.474 153.383 41.1625C152.774 40.8512 152.261 40.4379 151.843 39.9233C151.425 39.4086 151.103 38.8276 150.877 38.1811C150.65 37.5347 150.537 36.8647 150.537 36.1698C150.537 35.4041 150.65 34.6856 150.877 34.0149C151.103 33.3443 151.425 32.7637 151.843 32.2728C152.261 31.7817 152.774 31.3927 153.383 31.1054C153.991 30.8184 154.69 30.6742 155.477 30.6742C156.265 30.6742 156.968 30.8184 157.589 31.1054C158.21 31.3927 158.741 31.7879 159.183 32.2908C159.624 32.7937 159.964 33.3803 160.203 34.0503C160.441 34.721 160.561 35.4277 160.561 36.1698C160.561 36.8883 160.441 37.577 160.203 38.2352ZM160.561 27.6472V30.2417H160.489C159.868 29.1848 159.033 28.4039 157.983 27.8995C156.933 27.3949 155.799 27.1426 154.582 27.1426C153.293 27.1426 152.13 27.3831 151.091 27.8635C150.053 28.3442 149.17 28.9928 148.442 29.8094C147.714 30.6263 147.153 31.5875 146.76 32.6922C146.366 33.7976 146.169 34.975 146.169 36.2239C146.169 37.4491 146.371 38.6085 146.777 39.7014C147.183 40.795 147.75 41.7499 148.478 42.5662C149.206 43.3833 150.095 44.032 151.145 44.5122C152.195 44.9925 153.365 45.2331 154.654 45.2331C155.847 45.2331 156.927 45.0084 157.894 44.5596C158.86 44.1107 159.653 43.4615 160.275 42.6119H160.346V43.8778C160.346 44.746 160.257 45.5416 160.078 46.265C159.899 46.9881 159.6 47.6154 159.183 48.1457C158.765 48.6761 158.204 49.0917 157.5 49.3935C156.796 49.6947 155.93 49.8458 154.904 49.8458C153.83 49.8458 152.768 49.6351 151.718 49.215C150.695 48.8055 149.775 48.2192 148.956 47.4568L146.419 50.7466C146.968 51.2028 147.589 51.6115 148.281 51.9719C148.973 52.3322 149.695 52.6323 150.447 52.8728C151.199 53.1127 151.962 53.2929 152.738 53.4132C153.514 53.5332 154.248 53.5935 154.94 53.5935C156.61 53.5935 158.055 53.353 159.272 52.8728C160.489 52.3918 161.497 51.7134 162.297 50.8367C163.097 49.9595 163.687 48.8906 164.069 47.6295C164.451 46.3682 164.642 44.9565 164.642 43.395V27.6472H160.561Z" fill="white"/>
</svg>
