<svg width="348" height="87" viewBox="0 0 348 87" fill="none" xmlns="http://www.w3.org/2000/svg">
<g clip-path="url(#clip0_825_2750)">
<path d="M7.4893 49.4978H7.70617L22.291 34.5083H31.5082L15.2426 50.1449L32.8637 69.0166H23.3754L7.70617 51.1154H7.4893V69.0166H0.603516V13.9651H7.4893V49.4978Z" fill="white"/>
<path d="M157.241 46.6939C157.241 44.1058 156.482 42.2186 154.91 40.9785C153.338 39.7383 151.277 39.1452 148.675 39.1452C146.723 39.1452 144.88 39.5227 143.145 40.2775C141.41 41.0324 139.946 42.0029 138.807 43.1353L135.12 38.7678C136.801 37.1502 138.915 35.9101 141.355 34.9935C143.795 34.0768 146.452 33.5916 149.271 33.5916C151.765 33.5916 153.934 33.969 155.723 34.6699C157.567 35.3709 159.031 36.3414 160.223 37.5277C161.416 38.7678 162.284 40.1697 162.88 41.8412C163.477 43.5127 163.748 45.2381 163.748 47.1792V62.2226C163.748 63.4089 163.802 64.5951 163.856 65.8891C163.91 67.1832 164.073 68.2077 164.236 69.0704H158C157.621 67.3989 157.404 65.7813 157.404 64.1098H157.187C155.94 65.9431 154.314 67.3989 152.416 68.4234C150.464 69.4478 148.187 69.9331 145.584 69.9331C144.229 69.9331 142.765 69.7713 141.301 69.3939C139.837 69.0165 138.482 68.4234 137.235 67.6146C135.988 66.8058 135.012 65.6735 134.198 64.3255C133.385 62.9775 133.006 61.306 133.006 59.311C133.006 56.669 133.71 54.62 135.12 53.1103C136.53 51.6006 138.373 50.4143 140.705 49.6056C142.982 48.7968 145.584 48.2576 148.458 48.0419C151.332 47.8262 154.259 47.6645 157.187 47.6645V46.6939H157.241ZM155.561 52.5711C153.826 52.5711 152.091 52.625 150.247 52.7868C148.404 52.9485 146.777 53.2181 145.259 53.6495C143.795 54.0808 142.548 54.7279 141.572 55.5906C140.596 56.4533 140.108 57.6395 140.108 59.0953C140.108 60.1198 140.325 60.9825 140.705 61.6295C141.138 62.3305 141.681 62.8697 142.331 63.301C143.036 63.7324 143.795 64.0559 144.608 64.2177C145.422 64.3794 146.289 64.4872 147.157 64.4872C150.356 64.4872 152.85 63.5167 154.585 61.6295C156.32 59.6884 157.187 57.316 157.187 54.4044V52.5711H155.561Z" fill="white"/>
<path d="M199.315 43.2432C198.61 42.1109 197.472 41.1942 196.008 40.4394C194.544 39.6845 192.972 39.3071 191.345 39.3071C189.556 39.3071 187.929 39.6306 186.574 40.3315C185.164 41.0325 184.026 41.8952 183.05 43.0814C182.074 44.2137 181.315 45.5617 180.827 47.0714C180.339 48.5812 180.068 50.1448 180.068 51.8163C180.068 53.4878 180.339 55.0515 180.827 56.5612C181.315 58.0709 182.074 59.365 183.05 60.5512C184.026 61.6835 185.218 62.6002 186.628 63.3011C188.038 64.0021 189.664 64.3256 191.454 64.3256C193.189 64.3256 194.815 64.0021 196.225 63.3011C197.689 62.6002 198.827 61.6835 199.749 60.5512L204.358 64.703C202.894 66.4284 201.05 67.7225 198.881 68.693C196.659 69.6636 194.219 70.0949 191.399 70.0949C188.688 70.0949 186.249 69.6636 183.971 68.8009C181.694 67.9382 179.742 66.698 178.061 65.1344C176.381 63.5707 175.079 61.6296 174.158 59.4189C173.182 57.2082 172.748 54.674 172.748 51.9242C172.748 49.2282 173.236 46.7479 174.158 44.4833C175.079 42.2726 176.381 40.3315 178.061 38.7139C179.742 37.0964 181.694 35.8562 183.971 34.9935C186.249 34.1308 188.688 33.6995 191.345 33.6995C193.785 33.6995 196.225 34.1847 198.61 35.1553C201.05 36.1258 202.948 37.5277 204.358 39.361L199.315 43.2432Z" fill="white"/>
<path d="M233.039 40.1158H223.822V58.0169C223.822 60.1198 224.202 61.5756 225.015 62.4922C225.774 63.4089 227.021 63.8402 228.756 63.8402C229.407 63.8402 230.057 63.7863 230.816 63.6245C231.521 63.5167 232.226 63.301 232.768 63.0314L232.985 68.639C232.172 68.9086 231.25 69.1782 230.22 69.34C229.244 69.5017 228.159 69.6096 227.129 69.6096C223.876 69.6096 221.382 68.6929 219.647 66.9136C217.912 65.1343 217.045 62.4383 217.045 58.8257V40.1158H210.376V34.5082H217.045V24.587H223.876V34.5082H233.093V40.1158H233.039Z" fill="white"/>
<path d="M275.98 51.7085C275.98 54.4045 275.492 56.8308 274.571 59.0415C273.595 61.2522 272.294 63.1933 270.613 64.8109C268.932 66.4284 266.926 67.7225 264.649 68.5852C262.372 69.5018 259.877 69.9332 257.275 69.9332C254.618 69.9332 252.178 69.5018 249.901 68.5852C247.624 67.6686 245.618 66.4284 243.991 64.8109C242.311 63.1933 241.009 61.2522 240.088 59.0415C239.112 56.8308 238.678 54.3505 238.678 51.7085C238.678 49.0665 239.166 46.5862 240.088 44.3755C241.064 42.1648 242.365 40.2776 243.991 38.66C245.672 37.0425 247.624 35.8023 249.901 34.8857C252.178 33.9691 254.672 33.5377 257.275 33.5377C259.932 33.5377 262.372 33.9691 264.649 34.8857C266.926 35.8023 268.932 37.0425 270.613 38.66C272.294 40.2776 273.595 42.1648 274.571 44.3755C275.492 46.5862 275.98 49.0125 275.98 51.7085ZM268.769 51.7085C268.769 50.037 268.498 48.4733 268.01 47.0175C267.522 45.5078 266.763 44.2137 265.787 43.0814C264.811 41.9491 263.619 41.0325 262.155 40.3855C260.691 39.6845 259.064 39.361 257.221 39.361C255.377 39.361 253.697 39.6845 252.287 40.3855C250.823 41.0864 249.63 41.9491 248.654 43.0814C247.678 44.2137 246.919 45.5617 246.431 47.0175C245.943 48.5273 245.672 50.0909 245.672 51.7085C245.672 53.38 245.943 54.9436 246.431 56.3995C246.919 57.9092 247.678 59.2572 248.654 60.3895C249.63 61.5757 250.823 62.4923 252.287 63.1394C253.751 63.8403 255.377 64.1638 257.221 64.1638C259.064 64.1638 260.745 63.8403 262.155 63.1394C263.619 62.4384 264.811 61.5218 265.787 60.3895C266.763 59.2033 267.522 57.9092 268.01 56.3995C268.552 54.9436 268.769 53.38 268.769 51.7085Z" fill="white"/>
<path d="M284.547 38.3904C284.493 36.9345 284.439 35.6405 284.33 34.5082H290.837C290.945 35.3709 290.999 36.3954 291.053 37.5277C291.108 38.66 291.108 39.5766 291.108 40.3315H291.325C292.3 38.2825 293.71 36.6649 295.608 35.4248C297.505 34.1847 299.62 33.5916 301.951 33.5916C303.036 33.5916 303.903 33.6994 304.662 33.8611L304.391 40.1697C303.415 39.954 302.385 39.7923 301.247 39.7923C299.566 39.7923 298.156 40.1158 296.909 40.7089C295.662 41.302 294.686 42.1108 293.873 43.1353C293.06 44.1597 292.463 45.3459 292.084 46.64C291.704 47.988 291.487 49.3899 291.487 50.8457V69.0165H284.601V41.949C284.601 41.0324 284.601 39.8462 284.547 38.3904Z" fill="white"/>
<path d="M53.3585 86.2707L90.9863 0H86.6488L49.021 86.2707H53.3585Z" fill="white"/>
<path d="M318.651 34.5083H310.952L325.808 69.0166L329.386 61.5757L318.651 34.5083Z" fill="white"/>
<path d="M340.121 34.5083L329.549 61.5757H329.386L325.537 68.8548L323.043 74.732C322.229 76.5653 321.416 77.9672 320.494 78.8838C319.573 79.8543 318.217 80.2857 316.428 80.2318C315.289 80.1779 314.151 79.9622 313.012 79.5308L312.145 85.5698C312.904 85.7855 313.663 85.9472 314.422 86.0551C315.181 86.1629 315.94 86.2168 316.645 86.2168C318.325 86.2707 319.844 86.109 321.091 85.7315C322.338 85.3541 323.476 84.761 324.398 84.0061C325.374 83.2513 326.187 82.2807 326.892 81.2023C327.597 80.07 328.302 78.8299 328.898 77.3741L347.604 34.5083H340.121Z" fill="white"/>
<path d="M118.475 27.2831C118.475 26.2047 118.529 25.1802 118.692 24.2097C118.855 23.2391 119.126 22.3225 119.56 21.5676C119.993 20.8128 120.644 20.1657 121.403 19.7344C122.216 19.2491 123.246 19.0334 124.602 19.0334C125.307 19.0334 125.903 19.0874 126.445 19.1952C126.879 19.2491 127.313 19.357 127.747 19.4648L128.56 13.5876C127.421 13.318 126.066 13.1562 124.548 13.1562C122.216 13.1562 120.21 13.5337 118.584 14.2346C116.957 14.9895 115.602 15.96 114.571 17.2002C113.541 18.4403 112.782 19.9501 112.294 21.6755C111.806 23.4009 111.589 25.2881 111.589 27.337V34.5083H104.704V40.1158H111.589V69.0165H118.475V40.1158H126.554V34.5083H118.475V27.2831Z" fill="white"/>
</g>
<defs>
<clipPath id="clip0_825_2750">
<rect width="347" height="86.2707" fill="white" transform="translate(0.603516)"/>
</clipPath>
</defs>
</svg>
